<svg width="452" height="300" viewBox="0 0 452 300" fill="none" xmlns="http://www.w3.org/2000/svg">
<path d="M242.887 174.834H249.633C247.99 174.834 247.763 171.164 247.763 171.164V166.865C248.672 165.047 248.672 163.964 248.672 163.964C248.445 164.261 247.763 164.191 247.763 164.191V161.098C247.763 159.263 249.476 158.249 249.476 158.249C247.501 157.393 247.833 154.107 247.833 154.107L247.92 144.635C247.92 143.237 249.004 142.328 249.004 142.328H241.873C238.186 142.328 237.801 145.054 237.801 145.054V154.736C237.801 157.497 236.106 158.249 236.106 158.249C237.347 158.773 237.801 161.098 237.801 161.098V171.583C237.801 176.931 236.508 179.605 236.508 179.605C237.959 178.854 239.602 176.721 239.602 176.721C240.755 174.799 241.454 174.834 241.454 174.834H242.642C242.275 174.782 241.559 174.484 241.559 172.789V165.239L244.128 163.876V172.947C244.163 172.929 244.093 174.834 242.887 174.834ZM241.594 161.639L241.437 146.732C241.437 145.334 242.887 145.264 242.887 145.264C244.145 145.264 244.145 145.526 244.145 145.526V160.503L241.594 161.639Z" fill="#231F20"/>
<path fill-rule="evenodd" clip-rule="evenodd" d="M266.83 158.301C265.467 157.62 265.204 155.82 265.152 155.243V144.512C265.152 142.59 266.078 142.415 266.078 142.415H261.063C262.024 142.415 261.954 144.512 261.954 144.512V149.301L257.934 143.604V142.363H252.866C254.124 142.363 254.02 144.512 254.02 144.512V155.208C253.967 155.75 253.722 157.62 252.324 158.301C252.324 158.301 253.548 158.861 254.02 161.115V172.247C254.02 174.467 252.621 174.851 252.621 174.851H259.088C257.812 174.851 257.672 172.247 257.672 172.247V166.9C258.511 164.907 258.371 163.946 258.371 163.946C258.109 164.156 257.777 164.138 257.672 164.121V149.633L261.464 155.348V172.247C261.464 174.502 260.224 174.851 260.224 174.851H266.253C264.837 174.851 265.135 172.247 265.135 172.247V166.97C265.991 164.942 265.869 163.946 265.869 163.946C265.589 164.173 265.222 164.138 265.135 164.121V161.115C265.606 158.861 266.83 158.301 266.83 158.301Z" fill="#231F20"/>
<path d="M435.145 146.749V169.731C435.145 169.731 440.021 160.433 451.451 158.249C440.021 156.047 435.145 146.749 435.145 146.749Z" fill="#231F20"/>
<path d="M435.145 146.749C435.145 146.749 424.537 155.942 347.012 156.466C342.363 155.33 340.44 153.181 339.794 152.202C339.165 153.146 337.347 155.156 333.1 156.327L275.306 154.893V161.5L333.135 160.066C337.365 161.237 339.165 163.247 339.794 164.173C340.44 163.23 342.293 161.15 346.679 159.997C424.519 160.521 435.163 169.731 435.163 169.731V146.749H435.145Z" fill="#231F20"/>
<path d="M16.5676 147.483V170.465C16.5676 170.465 11.6218 161.167 0 158.965C11.6218 156.763 16.5676 147.483 16.5676 147.483Z" fill="#231F20"/>
<path d="M16.5676 147.483C16.5676 147.483 27.3331 156.659 106.047 157.2C110.748 156.064 112.705 153.915 113.387 152.936C114.034 153.88 115.869 155.907 120.185 157.06L178.854 155.627V162.233L120.15 160.8C115.869 161.954 114.034 163.981 113.387 164.907C112.74 163.964 110.853 161.884 106.396 160.73C27.368 161.237 16.5676 170.465 16.5676 170.465V147.483Z" fill="#231F20"/>
<path fill-rule="evenodd" clip-rule="evenodd" d="M183.642 278.556V263.474L183.887 262.67C185.966 258.249 185.862 254.404 185.862 254.404C185.093 255.191 183.695 254.893 183.695 254.893V245.037C185.215 239.462 188.326 238.011 188.326 238.011C185.337 236.508 184.166 233.135 183.695 230.846V223.034L183.642 214.453V197.85C183.642 197.85 184.254 193.761 188.134 191.751H147.047C147.047 191.751 150.682 192.59 150.682 201.433V229.937C150.35 232.139 149.301 236.281 145.893 237.994C145.893 237.994 149.249 239.567 150.682 245.666V276.459C150.682 285.302 147.047 286.141 147.047 286.141H188.134C184.254 284.149 183.642 278.556 183.642 278.556ZM170.5 196.417C173.314 196.417 173.855 199.021 173.96 199.895V278.067C173.855 278.889 173.366 281.23 170.989 281.51H163.929C161.045 281.143 160.94 277.77 160.94 277.77V263.247C163.387 257.532 163.09 254.387 163.09 254.387C162.373 255.086 160.975 254.876 160.923 254.876V200.175C160.923 200.175 161.045 196.4 164.418 196.4H170.5V196.417Z" fill="#231F20"/>
<path fill-rule="evenodd" clip-rule="evenodd" d="M200.751 172.16V166.987L200.839 166.707C201.555 165.187 201.52 163.876 201.52 163.876C201.258 164.156 200.786 164.034 200.786 164.034V160.643C201.311 158.738 202.377 158.231 202.377 158.231C201.346 157.707 200.944 156.571 200.786 155.767V153.093L200.769 150.14V144.443C200.769 144.443 200.979 143.044 202.307 142.345H188.203C188.203 142.345 189.462 142.642 189.462 145.666V155.453C189.357 156.204 188.99 157.637 187.819 158.214C187.819 158.214 188.972 158.756 189.462 160.853V171.426C189.462 174.467 188.203 174.747 188.203 174.747H202.307C200.961 174.082 200.751 172.16 200.751 172.16ZM196.225 143.953C197.186 143.953 197.379 144.844 197.413 145.159V172.003C197.379 172.282 197.204 173.086 196.4 173.191H193.971C192.975 173.069 192.94 171.898 192.94 171.898V166.917C193.778 164.942 193.674 163.876 193.674 163.876C193.429 164.121 192.94 164.051 192.94 164.034V145.246C192.94 145.246 192.974 143.953 194.145 143.953H196.225Z" fill="#231F20"/>
<path fill-rule="evenodd" clip-rule="evenodd" d="M384.306 278.556V263.474L384.551 262.67C386.631 258.249 386.526 254.404 386.526 254.404C385.757 255.191 384.359 254.893 384.359 254.893V245.037C385.862 239.462 388.99 238.011 388.99 238.011C386.001 236.508 384.831 233.135 384.359 230.846V223.034L384.306 214.453V197.85C384.306 197.85 384.184 193.761 388.064 191.751H347.711C347.711 191.751 351.346 192.59 351.346 201.433V229.937C351.014 232.139 349.965 236.281 346.557 237.994C346.557 237.994 349.913 239.567 351.346 245.666V276.459C351.346 285.302 347.711 286.141 347.711 286.141H388.798C384.918 284.149 384.306 278.556 384.306 278.556ZM371.146 196.417C373.96 196.417 374.502 199.021 374.607 199.895V278.067C374.502 278.889 374.013 281.23 371.636 281.51H364.575C361.709 281.143 361.587 277.77 361.587 277.77V263.247C364.034 257.532 363.737 254.387 363.737 254.387C363.02 255.086 361.622 254.876 361.569 254.876V200.175C361.569 200.175 361.692 196.4 365.065 196.4H371.146V196.417Z" fill="#231F20"/>
<path fill-rule="evenodd" clip-rule="evenodd" d="M233.048 286.159C233.048 286.159 225.69 283.31 225.69 272.492C225.69 272.492 223.523 276.25 217.791 276.25H207.375V263.265C209.822 257.55 209.525 254.404 209.525 254.404C208.808 255.103 207.41 254.893 207.358 254.893V245.736C208.791 239.584 212.164 238.011 212.164 238.011C208.721 236.281 207.672 232.052 207.358 229.885V200.192C207.358 200.192 207.48 196.417 210.853 196.417L215.292 191.769H193.464C193.464 191.769 197.116 192.608 197.116 201.451V229.955C196.784 232.157 195.736 236.299 192.328 238.011C192.328 238.011 195.683 239.584 197.116 245.683V276.477C197.116 285.32 193.464 286.159 193.464 286.159H233.048Z" fill="#231F20"/>
<path d="M74.5019 79.3778C72.0727 80.0944 72.0727 78.9234 72.0727 78.9234V24.3621C72.0727 10.0839 70.0979 8.40615 70.0979 8.40615C67.0919 -0.0699097 48.4621 0.087414 48.4621 0.087414L32.943 0.0349869C25.5505 0.0349869 17.4065 0.0349869 17.4065 0.0349869C21.9853 2.0273 24.5019 7.63723 24.5019 7.63723V46.9941C24.5019 55.4002 17.4415 57.3926 17.4415 57.3926C23.7505 59.8567 25.1136 66.4278 25.1136 66.4278V108.738C24.5893 116.9 17.389 118.892 17.389 118.892H52.0448C71.3737 118.892 72.0727 105.662 72.0727 105.662V90.0734L73.9951 86.281C76.2496 82.1741 76.3894 79.0458 76.3894 79.0458C75.5505 79.1681 74.5019 79.3778 74.5019 79.3778ZM54.4915 97.1863C54.4915 106.396 50.1049 107.026 50.1049 107.026H44.4076C41.6987 107.026 42.0308 103.915 42.0308 103.915V14.2957C42.0308 14.2957 41.6987 11.5344 44.4076 11.5344H50.1049C50.1049 11.5344 54.4915 12.0762 54.4915 20.2901V97.1863Z" fill="#231F20"/>
<path d="M134.813 118.018V90.0384C139.235 85.5994 139.584 79.3778 139.584 79.3778C137.959 81.0031 134.813 80.1293 134.813 80.1293V66.7423C134.813 66.7423 135.04 56.3788 123.471 56.3788C135.04 56.3788 134.813 46.0153 134.813 46.0153V24.3796C134.813 10.1013 132.838 8.42359 132.838 8.42359C129.832 -0.0524696 111.202 0.104801 111.202 0.104801L94.9319 0.0523737C87.5394 0.0523737 79.3954 0.0523737 79.3954 0.0523737C83.9742 2.04468 86.4908 7.65462 86.4908 7.65462V47.0115C86.4908 55.4177 79.4303 57.4099 79.4303 57.4099C85.7393 59.8741 87.1025 66.4453 87.1025 66.4453V108.756C86.5782 116.917 79.3779 118.909 79.3779 118.909H109.962C104.491 118.909 104.02 98.7941 104.02 98.7941L104.002 61.6742C106.484 61.3596 117.232 60.3635 117.232 66.7773C117.232 66.7773 117.232 93.8308 117.232 105.033C117.232 116.253 112.775 118.909 112.775 118.909C121.426 118.909 123.296 121.531 123.296 121.531C131.825 133.45 144.076 139.357 144.076 139.357C136.543 131.755 134.813 118.018 134.813 118.018ZM117.249 45.9979C117.249 52.4117 106.501 51.4156 104.02 51.101L104.037 14.3131C104.037 14.3131 103.705 11.5519 106.414 11.5519H112.88C112.88 11.5519 117.267 12.0937 117.267 20.3076V45.9979H117.249Z" fill="#231F20"/>
<path d="M174.921 11.4645H186.176C196.767 11.4645 203.146 15.0821 203.146 15.0821V0.0349869H173.995L165.834 0.0174935C158.441 0.0174935 150.297 0.0174935 150.297 0.0174935C154.876 2.0098 157.393 7.61974 157.393 7.61974V46.9766C157.393 55.3827 150.332 57.3751 150.332 57.3751C156.641 59.8392 158.004 66.4103 158.004 66.4103V108.721C157.48 116.882 150.28 118.875 150.28 118.875H203.146V103.076C203.146 103.076 196.767 106.693 186.176 106.693H174.921V103.775C174.904 103.46 174.921 103.251 174.921 103.181V89.6016C179.64 84.7431 180.759 78.8536 180.759 78.8536C178.504 81.0556 175.673 80.0595 174.921 79.7274V65.4841H185.582C198.515 65.4841 201.101 70.2901 201.101 70.2901V45.4561C197.012 53.0933 182.471 51.9224 182.471 51.9224H174.921L174.939 14.2782C174.939 14.2258 174.921 14.0336 174.939 13.754V11.4645H174.921Z" fill="#231F20"/>
<path d="M243.656 118.857H275.288C267.564 118.857 266.55 105.418 266.55 105.418V89.7239C270.849 83.0479 270.814 79.1157 270.814 79.1157C269.731 80.1993 266.55 79.9371 266.55 79.9371V68.6124C266.55 61.9364 274.537 58.2139 274.537 58.2139C265.309 55.1031 266.83 43.0968 266.83 43.0968L267.284 8.42364C267.284 3.28558 272.37 0 272.37 0H239.007C221.706 0 219.888 9.96157 219.888 9.96157V45.3688C219.888 55.4527 211.901 58.2139 211.901 58.2139C217.704 60.1188 219.853 68.6124 219.853 68.6124V106.973C219.853 126.547 213.806 136.281 213.806 136.281C220.657 133.572 228.329 125.76 228.329 125.76C233.729 118.7 237.032 118.84 237.032 118.84H242.625C240.912 118.682 237.539 117.564 237.539 111.36V83.712L249.598 78.7137V111.884C249.633 111.884 249.231 118.84 243.656 118.857ZM237.574 70.5872L236.858 16.0434C236.858 10.9228 243.708 10.6781 243.708 10.6781C249.633 10.6781 249.633 11.6393 249.633 11.6393V66.4103L237.574 70.5872Z" fill="#231F20"/>
<path d="M37.0675 286.159H56.6935C51.9049 286.159 51.2758 275.481 51.2758 275.481V263.02C53.9322 257.725 53.9147 254.596 53.9147 254.596C53.2506 255.453 51.2758 255.243 51.2758 255.243V246.26C51.2758 240.965 56.2216 237.994 56.2216 237.994C50.4894 235.53 51.4506 225.987 51.4506 225.987L51.7302 198.462C51.7302 194.39 54.8759 191.769 54.8759 191.769H34.1839C23.4534 191.769 22.3349 199.685 22.3349 199.685V227.805C22.3349 235.809 17.389 237.994 17.389 237.994C20.9892 239.514 22.3174 246.26 22.3174 246.26V276.721C22.3174 292.275 18.5774 300 18.5774 300C22.8242 297.833 27.5778 291.646 27.5778 291.646C30.9158 286.036 32.978 286.141 32.978 286.141H36.4558C35.3897 286.001 33.31 285.128 33.31 280.199V258.231L40.7899 254.264V280.619C40.7725 280.619 40.5278 286.141 37.0675 286.159ZM33.2926 247.815L32.8557 204.491C32.8557 200.419 37.1024 200.227 37.1024 200.227C40.7725 200.227 40.7725 200.996 40.7725 200.996V244.495L33.2926 247.815Z" fill="#231F20"/>
<path d="M363.125 89.2695C366.952 83.9217 367.197 79.1332 367.197 79.1332C366.27 80.0594 363.841 80.007 363.125 79.972V68.6473C363.125 68.6473 365.274 60.1538 371.076 58.2489C371.076 58.2489 363.09 55.4876 363.09 45.4037V13.6491C363.09 13.6491 363.911 0.0349838 370.447 0.0349838H332.296C332.296 0.0349838 329.885 -0.297106 327.298 2.2894C327.298 2.2894 326.512 2.63895 325.236 2.63895C323.978 2.63895 323.191 2.2894 323.191 2.2894C320.605 -0.297106 318.193 0.0349838 318.193 0.0349838H280.042C286.578 0.0349838 287.399 13.6491 287.399 13.6491V45.4037C287.399 55.4876 279.413 58.2489 279.413 58.2489C285.215 60.1538 287.364 68.6473 287.364 68.6473V107.008C287.364 126.582 281.318 136.316 281.318 136.316C288.168 133.607 295.841 125.795 295.841 125.795C301.223 118.735 304.544 118.875 304.544 118.875H310.154C308.441 118.717 305.068 117.599 305.068 111.395L304.911 89.3394C308.773 83.9742 309.018 79.1506 309.018 79.1506C308.039 80.1293 305.365 80.007 304.858 79.9895L304.369 16.0608C304.369 11.2898 310.311 10.748 311.115 10.6956C317.529 10.6956 317.267 18.0706 317.267 18.0706V94.093C317.267 104.736 309.874 105.959 309.874 105.959H340.633C340.633 105.959 333.24 104.736 333.24 94.093V89.5666C337.26 84.0965 337.504 79.1506 337.504 79.1506C336.438 80.2167 333.327 79.9895 333.24 79.972V18.0706C333.24 18.0706 332.978 10.6956 339.392 10.6956C340.196 10.748 346.138 11.2723 346.138 16.0608L345.421 111.412C345.421 117.616 342.066 118.735 340.335 118.892H345.928C345.928 118.892 349.248 118.752 354.631 125.813C354.631 125.813 362.303 133.607 369.154 136.333C369.154 136.333 363.107 126.599 363.107 107.026V89.2695H363.125Z" fill="#231F20"/>
<path fill-rule="evenodd" clip-rule="evenodd" d="M427.525 105.068C429.413 96.3824 435.145 94.5474 435.145 94.5474C429.203 91.9958 427.77 86.6481 427.438 83.712V80.1119C426.075 61.3597 411.342 57.9693 411.342 57.9693C403.408 56.3614 395.648 52.1496 395.648 52.1496V10.6257C395.788 8.9829 396.627 6.29152 400.507 6.29152H407.864C411.692 6.29152 412.548 8.913 412.723 10.5733V23.1038C412.723 40.8424 408.424 41.7337 408.424 41.7337C424.432 46.4173 427.7 63.6142 427.7 63.6142V22.4572C427.7 9.00036 431.65 0.0174935 431.65 0.0174935H372.999C377.7 0.0174935 379.553 3.25064 379.553 3.25064V15.554C377.578 23.9078 372.02 25.6728 372.02 25.6728C378.189 28.3118 379.5 33.9741 379.762 36.8053C379.78 37.1199 379.797 37.417 379.815 37.7316V38.518C379.815 38.518 379.832 38.2733 379.815 37.8539C380.461 48.1999 382.087 55.9245 382.087 55.9245C384.988 66.69 389.06 69.8882 389.06 69.8882C394.25 75.201 397.815 74.2223 397.815 74.2223H405.522C417.406 74.2223 419.224 78.2244 419.224 78.2244H412.688V99.0912C412.688 104.963 412.076 108.598 411.569 110.608C410.975 111.604 409.909 112.443 408.022 112.601H398.846C396.767 112.443 395.683 111.43 395.124 110.311C394.897 99.6855 394.984 86.9102 394.984 86.9102C385.879 86.9102 379.448 72.7019 379.448 72.7019V105.365C379.448 115.676 373.261 118.857 373.261 118.857L432.628 118.647C428.836 117.127 427.805 109.734 427.525 105.068Z" fill="#231F20"/>
<path fill-rule="evenodd" clip-rule="evenodd" d="M144.408 266.865C140.668 264.837 139.776 260.591 139.567 258.266V255.418C138.71 240.51 129.465 237.819 129.465 237.819C124.485 236.543 119.137 233.188 119.137 233.188V200.052C119.242 198.794 119.783 196.907 121.881 196.749H127.316C129.5 196.749 130.147 198.462 130.322 199.773V210.101C130.322 224.205 127.613 224.904 127.613 224.904C137.662 228.626 139.706 242.293 139.706 242.293V209.595C139.706 198.917 142.188 191.769 142.188 191.769H105.365C108.319 191.769 109.472 194.338 109.472 194.338V204.107C108.231 210.748 104.736 212.146 104.736 212.146C108.616 214.243 109.437 218.735 109.595 220.989C109.612 221.234 109.612 221.479 109.63 221.723V222.352C109.63 222.352 109.647 222.16 109.63 221.828C110.049 230.042 111.045 236.176 111.045 236.176C112.863 244.722 115.414 247.256 115.414 247.256C118.665 251.468 120.902 250.699 120.902 250.699H125.743C133.205 250.699 134.341 253.88 134.341 253.88H130.234V270.482C130.234 275.131 129.85 278.032 129.518 279.64C129.151 280.426 128.469 281.091 127.298 281.213H121.828C119.906 281.021 119.346 279.378 119.189 278.155C119.067 269.993 119.119 260.8 119.119 260.8C113.404 260.8 109.367 249.528 109.367 249.528V276.459C109.367 284.656 105.47 286.176 105.47 286.176H142.782C140.406 284.953 139.741 278.941 139.567 275.236C140.807 268.315 144.408 266.865 144.408 266.865Z" fill="#231F20"/>
<path fill-rule="evenodd" clip-rule="evenodd" d="M338.029 276.477V262.88C340.388 257.183 340.003 254.404 340.003 254.404C339.287 254.998 338.413 254.963 338.029 254.911V245.683C339.462 239.584 342.817 238.011 342.817 238.011C339.409 236.299 338.343 232.157 338.029 229.955V201.451C338.029 192.608 341.664 191.769 341.664 191.769H322.754C322.754 191.769 326.389 192.608 326.389 201.451V229.955C326.075 232.157 325.009 236.299 321.601 238.011C321.601 238.011 324.956 239.584 326.389 245.683V276.477C326.389 285.32 322.754 286.159 322.754 286.159H341.664C341.681 286.159 338.029 285.32 338.029 276.477Z" fill="#231F20"/>
<path fill-rule="evenodd" clip-rule="evenodd" d="M309.857 191.751C308.022 191.751 306.187 191.751 304.352 191.751H285.425C283.625 191.751 281.807 191.751 280.007 191.751H270.552C270.552 191.751 274.187 192.59 274.187 201.433H274.205V209.193C274.257 213.754 274.24 218.455 274.205 223.156V235.722C276.791 227.228 280.357 220.255 287.19 218.298C282.716 214.558 284.621 199.283 285.565 191.804C286.246 192.066 289.06 193.656 289.06 201.433V229.937C288.728 232.139 287.679 236.281 284.271 237.994C284.271 237.994 287.627 239.567 289.06 245.666V276.459C289.06 285.302 285.407 286.141 285.407 286.141H304.334C304.334 286.141 300.682 285.285 300.682 276.459V262.758C303.006 257.113 302.622 254.369 302.622 254.369C301.922 254.946 301.084 254.928 300.682 254.893V245.666C302.115 239.567 305.47 237.994 305.47 237.994C302.062 236.281 301.014 232.139 300.682 229.937V201.433C300.682 193.237 303.81 191.908 304.264 191.769C305.191 199.231 307.113 214.558 302.639 218.298C309.472 220.255 313.037 227.228 315.624 235.722V223.156C315.589 218.455 315.572 213.754 315.624 209.193V201.451H315.641C315.641 192.608 319.277 191.769 319.277 191.769H309.857V191.751Z" fill="#231F20"/>
<path fill-rule="evenodd" clip-rule="evenodd" d="M268.595 238.011C265.187 236.299 264.121 232.157 263.806 229.955V201.451C263.806 192.608 268.927 191.769 268.927 191.769H247.658C247.658 191.769 253.53 191.961 253.53 197.868V197.833L253.548 200.192V275.498C253.548 275.498 253.443 278.871 250.559 279.238H250.332C250.332 279.238 244.844 279.867 240.528 269.678C240.528 269.678 240.073 269.888 239.671 259.979V197.885C239.671 197.885 239.514 191.786 244.687 191.786H224.904C224.904 191.786 229.028 192.94 229.028 197.885V229.483C228.784 231.492 227.857 236.176 224.17 238.029C224.17 238.029 227.63 239.637 229.028 245.98V260.241C229.028 260.241 228.154 286.194 250.315 286.194H267.424C267.424 286.194 263.771 285.337 263.771 276.512V263.23C266.288 257.305 265.886 254.439 265.886 254.439C265.065 255.121 264.034 254.981 263.771 254.928V245.718C265.239 239.584 268.595 238.011 268.595 238.011Z" fill="#231F20"/>
<path d="M211.395 145.456H213.824C216.113 145.456 217.494 146.435 217.494 146.435V142.363H209.437C207.847 142.363 206.082 142.363 206.082 142.363C207.061 142.905 207.62 144.425 207.62 144.425V155.086C207.62 157.358 206.099 157.899 206.099 157.899C207.462 158.563 207.76 160.346 207.76 160.346V171.793C207.637 173.995 206.099 174.554 206.099 174.554H213.055C211.884 174.048 211.517 172.894 211.412 172.038V170.465C211.412 170.377 211.412 170.325 211.412 170.308V166.62C212.426 165.309 212.67 163.719 212.67 163.719C212.181 164.313 211.569 164.051 211.412 163.964V160.101H213.702C216.498 160.101 217.057 161.395 217.057 161.395V154.666C216.183 156.728 213.037 156.414 213.037 156.414H211.412V146.225C211.412 146.208 211.412 146.155 211.412 146.085V145.456H211.395Z" fill="#231F20"/>
<path d="M98.1126 278.556V263.457L98.3573 262.653C100.437 258.231 100.332 254.387 100.332 254.387C99.5631 255.173 98.165 254.876 98.165 254.876V245.037C99.6855 239.462 102.796 238.011 102.796 238.011C99.8078 236.508 98.6369 233.153 98.165 230.863V219.154C95.5785 219.154 92.2056 212.513 92.2056 212.513V197.746C92.2056 192.992 97.798 191.716 97.798 191.716H59.7169C64.156 191.716 65.1696 197.483 65.1696 197.483V229.955C64.8375 232.157 63.7889 236.298 60.381 238.011C60.381 238.011 63.7365 239.584 65.1696 245.683V276.477C65.1696 285.32 61.517 286.159 61.517 286.159H102.604C98.7243 284.149 98.1126 278.556 98.1126 278.556ZM75.4457 196.749H81.9469V214.173L75.4457 220.395V196.749ZM77.84 281.51C75.6205 281.51 75.4108 278.556 75.4108 278.556V263.23C77.8575 257.515 77.5604 254.369 77.5604 254.369C76.8438 255.068 75.4457 254.858 75.3933 254.858V227.438C75.3933 227.438 75.568 223.348 82.6635 223.348C82.6635 223.348 87.1899 222.981 88.4132 227.438V279.028C88.2384 279.867 87.6967 281.51 86.0539 281.51H77.84Z" fill="#231F20"/>
<path fill-rule="evenodd" clip-rule="evenodd" d="M429.168 285.984L428.906 281.615C428.836 279.972 428.906 278.556 428.906 278.556V263.195C431.423 257.27 431.021 254.404 431.021 254.404C430.199 255.086 429.168 254.946 428.906 254.893V246.138C430.287 239.654 433.799 238.011 433.799 238.011C429.85 236.036 429.063 230.793 428.906 229.081V197.868C428.906 192.258 431.615 191.769 431.615 191.769H417.022C419.836 191.769 419.609 197.868 419.609 197.868V211.796L407.934 195.229V191.646H393.202C396.837 191.646 396.557 197.868 396.557 197.868V228.976C396.417 230.549 395.683 235.984 391.646 238.011C391.646 238.011 395.194 239.654 396.557 246.173V278.556C396.557 285.023 392.52 286.159 392.52 286.159H411.325C407.637 286.159 407.183 278.556 407.183 278.556V263.002C409.595 257.218 409.21 254.404 409.21 254.404C408.441 255.033 407.515 254.963 407.183 254.911V212.775L418.245 229.395V278.556C418.245 285.11 414.645 286.159 414.645 286.159H418.682C419.539 286.526 421.199 287.731 423.436 291.489C423.436 291.489 428.207 297.676 432.436 299.843C432.436 299.843 430.217 295.229 429.203 285.984H429.168Z" fill="#231F20"/>
</svg>
