<svg width="340" height="300" viewBox="0 0 340 300" fill="none" xmlns="http://www.w3.org/2000/svg">
<path d="M339.296 288.531L264.832 161.904C264.667 161.431 259.13 145.272 264.524 138.778C256.852 140.242 246.461 129.532 244.678 127.628L169.62 0L93.77 129.026C90.9191 131.965 81.574 140.903 74.5184 139.56C79.2405 145.25 75.5751 158.36 74.4854 161.838L0 288.553L149.939 288.542C152.405 289.092 167.012 292.614 169.642 300C172.548 291.965 189.653 288.564 189.752 288.542L339.296 288.531ZM301.156 270.171L241.783 270.182H182.411L241.783 169.18L301.156 270.171ZM110.292 144.183H110.314L169.631 43.2801L228.96 144.183H229.037L228.993 144.249L229.004 144.271H228.982L169.664 245.184L110.347 144.282H110.259L110.303 144.216L110.292 144.183ZM38.2499 270.193L97.6225 169.191L157.006 270.182L97.6335 270.193H38.2499Z" fill="#231F20"/>
</svg>
